<svg width="73.023mm" height="91.336mm" version="1.1" viewBox="0 0 73.023 91.336" xmlns="http://www.w3.org/2000/svg">
 <g transform="translate(-71.219 -117.47)">
  <path d="m124.64 208.77c13.422-0.0482 18.996-0.1534 19.248-0.36313 0.2952-0.245 0.35527-7.5019 0.35313-42.662l-3e-3 -42.367-0.637-1.3681c-0.35036-0.75248-1.1529-1.871-1.7834-2.4856-2.1842-2.1291 0.59871-1.9586-33.291-2.0388-21.126-0.0499-30.714 0.0158-31.684 0.21719-1.9742 0.40984-3.7551 1.8863-4.8018 3.9809l-0.8228 1.6466v42.391c0 34.524 0.06402 42.444 0.34499 42.677 0.39362 0.32667 22.529 0.48183 53.076 0.37203z" fill="#f6eda6"/>
  <path d="m136.95 208.24c3.9501-0.0464 6.1877-0.17353 6.418-0.36465 0.29187-0.24223 0.35258-6.5141 0.34798-35.947-3e-3 -19.609 0.055-35.816 0.12896-36.016 0.074-0.19916 0.0331-3.1006-0.091-6.4475-0.17837-4.8132-0.32252-6.3209-0.68952-7.2119-0.58298-1.4154-2.7469-3.3892-4.1999-3.8309-1.5943-0.48457-60.656-0.48772-62.248-3e-3 -1.2689 0.38617-3.3729 2.1458-3.9904 3.3373-0.23649 0.45628-0.53166 1.2463-0.65593 1.7556-0.12428 0.50933-0.22113 19.618-0.21524 42.464 0.0084 32.369 0.08209 41.605 0.33408 41.845 0.33796 0.32097 9.7736 0.49818 22.019 0.41353 3.347-0.0231 12.991-0.0152 21.431 0.0176s18.075 0.0276 21.41-0.0116z" fill="#f0d44c"/>
  <path d="m131.09 208.28c0.10298-0.10297 0.18723-2.2915 0.18723-4.8633 0-5.564-0.39192-7.5188-2.274-11.342-1.0106-2.0528-1.6148-2.8729-3.5084-4.7625-1.2581-1.2554-3.0392-2.9466-3.958-3.758l-1.6705-1.4754 0.083-4.8746 0.083-4.8746 1.0953-1.4552c2.4148-3.2082 3.5349-6.6456 3.5349-10.848 0-8.6873-5.9304-16.107-14.297-17.888-2.6073-0.55485-7.1773-0.37134-9.2754 0.37245-6.17 2.1873-10.185 6.4122-11.864 12.483-0.51124 1.8489-0.54715 2.6752-0.54622 12.568 9.49e-4 10.154 0.02292 10.625 0.53496 11.464 0.79124 1.2978 1.8864 1.6377 5.2764 1.6377h2.9189v4.5539l-4.8286 4.9363c-4.3145 4.4107-4.9605 5.1895-6.0674 7.3142-1.6187 3.1072-2.3808 6.0405-2.2785 8.7704l0.0777 2.0742h3.6976l0.31533-2.5332c0.67276-5.4044 1.6781-7.086 8.224-13.756l5.0932-5.1896v-1.233c0-0.67817 0.0701-1.233 0.15578-1.233 0.31787 0 5.9296 4.0101 5.9296 4.2372 0 0.12976-0.53917 0.47443-1.1982 0.76593-1.787 0.79048-4.2342 3.2606-5.1673 5.2158-0.96854 2.0294-1.2884 4.3051-1.2993 9.2435-0.0101 4.6061 0.0248 4.6731 2.3799 4.5626l1.713-0.0803 0.13229-2.9104 0.13229-2.9104h13.758l0.13229 2.9104 0.1323 2.9104 1.6767 0.0794c1.0084 0.0477 1.8257-0.0443 2.0505-0.23083 0.46733-0.38785 0.53075-8.2949 0.0858-10.702-0.37829-2.0463-1.5895-4.4014-2.9682-5.7712-0.61042-0.6065-4.7695-3.6626-9.2425-6.7913-5.1729-3.6183-8.1338-5.8509-8.1358-6.1346-4e-3 -0.61283 1.634-4.7997 1.9722-5.04 0.15048-0.10691 2.8632-0.19621 6.0283-0.19843l5.7547-4e-3v4.5971c0 2.5284 0.0761 4.9775 0.16903 5.4423 0.13393 0.66962 0.89618 1.469 3.6698 3.8484 6.1402 5.2676 7.4876 8.1098 7.7778 16.407l0.15732 4.4979 1.731 0.077c0.95206 0.0423 1.8153-7e-3 1.9182-0.11024zm-26.382-10.383c-0.29712-0.48075 1.3205-3.0887 2.4368-3.9287 2.8426-2.139 7.0009-1.7448 9.3074 0.88219 0.81772 0.93133 1.5955 2.3952 1.5955 3.0029 0 0.33928-13.13 0.38221-13.34 0.0436zm12.201-0.38302c0.26388-0.4278-0.22298-2.0647-0.66166-2.2246-0.24664-0.0899-0.71585-0.42413-1.0427-0.74272-0.92912-0.90565-3.3011-1.7113-4.485-1.5234-1.5505 0.24617-3.1886 1.037-3.3769 1.6303-0.0935 0.29445-0.3745 0.60029-0.62456 0.67966-0.44298 0.14059-1.5634 1.8959-1.3467 2.11 0.21521 0.21261 11.408 0.28125 11.538 0.0707zm-23.997-30.749c0-9.0774 0.03341-9.7658 0.54906-11.311 1.9523-5.8503 6.876-9.4505 12.925-9.4505 6.2161 0 11.38 3.6667 13.418 9.5281 0.35622 1.0243 0.57596 1.9785 0.4883 2.1203-0.0971 0.15707-2.972 0.25947-7.3537 0.26194-3.9569 2e-3 -7.3416 0.0976-7.5216 0.21196-0.33393 0.21209-1.211 2.3758-5.087 12.55l-2.1923 5.7547h-5.2257zm4.9985 8.5412c0.12358-0.32742 0.60996-1.4883 1.0808-2.5797 0.47088-1.0914 0.97495-2.5034 1.1201-3.1378 0.1452-0.63437 0.53081-1.5466 0.85692-2.0271s0.73933-1.4498 0.91827-2.1539 0.43624-1.4588 0.57179-1.677c0.29127-0.46905 0.23123-0.3046 1.2061-3.3035 0.59624-1.8342 0.92215-2.453 1.4263-2.7081 0.47273-0.2392 2.5776-0.33173 7.6108-0.33455l6.9573-4e-3 -0.18401-0.98084c-0.23686-1.2626-1.4086-3.8516-1.8671-4.1255-0.19476-0.11637-0.35411-0.36198-0.35411-0.54581 0-0.5096-1.3641-1.6959-2.1828-1.8982-0.47915-0.11843-0.72761-0.35358-0.72761-0.68863 0-0.27983-0.20836-0.57612-0.46302-0.65842s-1.0263-0.44194-1.7148-0.79922c-0.73681-0.38237-2.315-0.81996-3.8364-1.0637-2.402-0.38485-2.725-0.38147-4.5691 0.0478-2.3384 0.54431-4.1341 1.396-4.9592 2.352-0.32646 0.37827-0.75302 0.68776-0.94791 0.68776-0.34649 0-2.0304 1.893-2.0304 2.2825 0 0.1083-0.25604 0.46944-0.56898 0.80255-0.36094 0.38421-0.82733 1.6481-1.2756 3.4566-0.67788 2.7351-0.70898 3.175-0.76531 10.824-0.06887 9.3525-0.2255 8.8277 2.6344 8.8277 1.664 0 1.8602-0.0566 2.0636-0.59531zm-2.3535-13.031c-0.51915-0.26847-0.85761-0.71891-1.0437-1.3891-0.38625-1.3908-0.36404-1.5351 0.41824-2.7172 0.6683-1.0099 0.75434-1.0527 2.1167-1.0527 1.4873 0 1.951 0.27199 2.8794 1.689 0.37516 0.57258 0.38963 0.80717 0.10309 1.6713-0.6756 2.0375-2.5525 2.7921-4.4737 1.7986zm2.5522-0.12964c1.548-0.62468 1.8901-2.7452 0.64398-3.9913-1.0398-1.0398-2.1759-1.0398-3.2157 0-1.2533 1.2533-0.9987 3.0562 0.54422 3.8541 0.86372 0.44665 1.2038 0.46967 2.0275 0.13726zm7.5028 6.8474c0-0.16179 0.55803-1.7713 1.24-3.5766l1.24-3.2825 12.204 0.1418-0.0688 0.62794c-0.11231 1.025-1.2917 3.7201-2.231 5.0984l-0.8752 1.2842-5.7547 5.1e-4c-4.0462 3.6e-4 -5.7547-0.0868-5.7547-0.29365zm2.1462-0.0881c0.0647-0.0647 2.1072-0.14598 4.5388-0.18058 4.3756-0.0622 4.4274-0.0699 5.0336-0.74221 1.3527-1.5002 2.6306-4.8121 2.0058-5.1983-0.15469-0.0956-2.6728-0.16138-5.5959-0.14617-5.5194 0.0287-5.7337 0.0724-5.7431 1.1687-2e-3 0.25978-0.16515 0.73603-0.36203 1.0583-0.19689 0.3223-0.51586 1.2802-0.70882 2.1286-0.29998 1.319-0.29603 1.5773 0.0272 1.7819 0.42462 0.26872 0.63199 0.30215 0.80444 0.1297zm34.835 38.525c0.26961-0.17111 0.33146-6.9153 0.31115-33.929-0.0291-38.731-5e-3 -36.303-0.36809-36.555-0.33405-0.23229-68.975-0.27361-69.579-0.0419-0.37871 0.14532-0.41852 3.4871-0.41852 35.137 0 26.851 0.07376 35.05 0.3175 35.294 0.22384 0.22385 1.7477 0.3175 5.1659 0.3175 5.5199 0 5.1118 0.18841 5.4605-2.5208 0.09416-0.73163 0.40874-1.9801 0.69906-2.7744 0.29032-0.79429 0.52797-1.684 0.52811-1.9771 2.28e-4 -0.47444 0.4323-1.4026 2.4769-5.3208 0.31104-0.59608 1.1013-1.5559 1.7562-2.133 1.9418-1.7112 5.5884-5.4023 6.9552-7.04 1.2339-1.4786 1.2706-1.5722 1.1938-3.0427l-0.07923-1.5172-2.3812-0.0357c-3.3963-0.051-4.7211-0.47629-5.6238-1.8054l-0.7262-1.0692 0.031-10.848c0.03116-10.906 0.14625-13.021 0.76244-14.014 0.18383-0.29615 0.41605-0.89563 0.51606-1.3322 0.46242-2.0187 5.2192-7.4727 7.091-8.1305 0.40018-0.14062 0.7276-0.40937 0.7276-0.59722s0.43413-0.42299 0.96472-0.52253c0.5306-0.0995 1.2152-0.33752 1.5214-0.52884 1.0936-0.68338 3.4893-1.041 6.9066-1.0311 3.1662 9e-3 3.6393 0.0779 5.9531 0.86419 1.3824 0.46981 2.8112 1.1301 3.175 1.4673 0.36381 0.33719 1.0708 0.81991 1.5712 1.0727 1.602 0.80943 3.8555 3.3341 5.883 6.5908 0.0979 0.15732 0.49365 1.2981 0.87937 2.535 0.52819 1.6938 0.73653 3.0327 0.84404 5.424 0.13121 2.9187 0.0839 3.3779-0.58619 5.6885-0.84098 2.8999-2.1642 5.5525-3.2244 6.4638l-0.73667 0.63319-0.1742 9.8249 1.0131 0.94711c0.55722 0.52091 1.4414 1.1714 1.9649 1.4456 0.52347 0.27421 1.1366 0.7733 1.3626 1.1091 0.22593 0.3358 1.0921 1.3185 1.9248 2.1838 1.5914 1.6537 3.6317 5.2204 3.9466 6.8992 0.0972 0.51795 0.41765 1.5024 0.71218 2.1878 0.47208 1.0984 0.532 1.7743 0.50585 5.7056-0.0202 3.0294 0.0686 4.5779 0.27663 4.8286 0.24218 0.29181 1.338 0.36822 5.2348 0.36501 2.7107-2e-3 5.08-0.10015 5.265-0.21761zm-16.252 0.0228c0.0676-0.10937 0.20726-1.2772 0.31036-2.5952 0.2093-2.6754-0.25567-7.0598-0.83932-7.9143-0.19606-0.28704-0.35647-0.89754-0.35647-1.3567 0-0.45913-0.17398-0.97917-0.38662-1.1556-0.21265-0.17648-0.46444-0.57801-0.55953-0.89229-0.0951-0.31428-0.48666-0.88395-0.87014-1.2659-0.38349-0.38197-1.0544-1.1291-1.491-1.6603-1.4658-1.7834-2.6415-2.8-3.2411-2.8023-0.32743-1e-3 -0.59532-0.094-0.59532-0.20613 0-0.1121-0.6376-0.89994-1.4169-1.7508l-1.4169-1.5469-0.18658-4.93c-0.10262-2.7115-0.28905-5.0337-0.4143-5.1604-0.30834-0.31207-10.359-0.20205-10.744 0.11761-0.42525 0.35292-1.4318 3.1937-1.4318 4.041 0 0.5168 0.29283 0.91277 1.1245 1.5205 0.61846 0.45195 1.3626 0.91972 1.6536 1.0395s1.1245 0.69821 1.8521 1.2854c2.4285 1.9599 2.8816 2.2779 3.8913 2.7307 0.55192 0.24754 1.0035 0.55478 1.0035 0.68275 0 0.32896 2.2555 1.9099 2.7248 1.9099 0.21414 0 0.57668 0.28592 0.80565 0.63538 0.22898 0.34946 0.92728 0.83775 1.5518 1.0851 1.5042 0.59576 3.666 3.2066 4.7563 5.7442 0.81603 1.8993 0.83008 2.0056 0.94245 7.1289 0.11098 5.06 0.12955 5.205 0.68582 5.3542 0.82042 0.22009 2.5032 0.19577 2.6478-0.0383zm-8.8322-0.31291c0.41046-0.76696 0.3461-3.5968-0.09-3.9588-0.25507-0.21169-2.1742-0.28073-6.4161-0.23083l-6.0522 0.0712-0.0782 1.9427c-0.0485 1.2045 0.0392 2.0842 0.23084 2.3151 0.24882 0.29981 1.4613 0.3724 6.2205 0.3724 5.5737 0 5.9271-0.0292 6.1853-0.51177zm-17.972 0.10231c0.17552-0.21148 0.2687-2.0906 0.25075-5.0568-0.03162-5.2242 0.2123-6.6366 1.4986-8.6779 0.94843-1.5051 3.3946-4.1121 3.8583-4.1121 0.19226 0 0.61986-0.18932 0.95022-0.42071 0.47649-0.33374 0.53666-0.49782 0.29106-0.79375-0.17028-0.20517-0.50337-0.37504-0.74022-0.37749-0.23684-2e-3 -0.89803-0.4787-1.4693-1.0583-1.111-1.1273-1.738-1.34-1.7417-0.59086-1e-3 0.25466-0.86336 1.356-1.9158 2.4474-1.0524 1.0914-2.036 2.2202-2.1857 2.5083-0.14975 0.28818-0.52657 0.65074-0.83738 0.80569-0.73304 0.36546-2.9383 2.701-3.1348 3.32-0.08356 0.26326-0.71166 0.88433-1.3958 1.3802-1.7487 1.2674-3.6014 5.1136-4.0784 8.4666-0.38144 2.6812-0.54849 2.6024 5.3883 2.5447 3.6599-0.0356 5.0568-0.13774 5.2619-0.38495zm44.262-71.203c0.30904-0.30905 0.19294-3.4073-0.14017-3.7404-0.2438-0.2438-8.5888-0.3175-35.951-0.3175-30.373 0-35.679 0.0552-35.944 0.37377-0.18656 0.2248-0.27857 1.0421-0.23083 2.0505l0.07937 1.6767 36.004 0.0671c19.802 0.0369 36.084-0.0127 36.182-0.11024zm-23.238-4.5871 22.225-0.13229 0.15027-2.9104c0.16497-3.195-0.38363-6.3645-1.2714-7.3455-0.77892-0.8607-2.5696-1.9517-3.5244-2.1473-1.1357-0.23268-59.207-0.22015-60.665 0.0131-1.0847 0.17345-2.8319 1.1944-3.7161 2.1714-0.77377 0.85501-1.2112 3.3211-1.2157 6.8536-3e-3 2.363 0.0861 3.2818 0.3266 3.3682 0.56524 0.20291 24.443 0.26762 47.691 0.12924zm-21.884-3.0174c-1.4399-0.21593-2.4586-1.1953-2.6645-2.5616-0.17957-1.1915-0.04326-1.4013 1.2639-1.9457 0.91913-0.38278 2.2922-0.44036 10.501-0.44036 9.031 0 9.4903 0.0239 10.518 0.54829 1.0045 0.51247 1.0747 0.62249 1.0747 1.684 0 1.5011-0.93979 2.4398-2.7435 2.74-1.5224 0.25347-16.23 0.23318-17.95-0.0247zm19.615-1.1194c0.3016-0.38343 0.54837-0.96268 0.54837-1.2872 0-0.32456-0.24677-0.90381-0.54837-1.2872l-0.54837-0.69714h-20.032l-0.54837 0.69714c-0.3016 0.38343-0.54837 0.96268-0.54837 1.2872 0 0.32455 0.24677 0.9038 0.54837 1.2872l0.54837 0.69714h20.032z" fill="#fcd732"/>
  <path d="m131.09 208.28c0.10298-0.10297 0.18723-2.2915 0.18723-4.8633 0-5.564-0.39192-7.5188-2.274-11.342-1.0106-2.0528-1.6148-2.8729-3.5084-4.7625-1.2581-1.2554-3.0392-2.9466-3.958-3.758l-1.6705-1.4754 0.083-4.8746 0.083-4.8746 1.0953-1.4552c2.4148-3.2082 3.5349-6.6456 3.5349-10.848 0-8.6873-5.9304-16.107-14.297-17.888-2.6073-0.55485-7.1773-0.37134-9.2754 0.37245-6.17 2.1873-10.185 6.4122-11.864 12.483-0.51124 1.8489-0.54715 2.6752-0.54622 12.568 9.49e-4 10.154 0.02292 10.625 0.53496 11.464 0.79124 1.2978 1.8864 1.6377 5.2764 1.6377h2.9189v4.5539l-4.8286 4.9363c-4.3145 4.4107-4.9605 5.1895-6.0674 7.3142-1.6187 3.1072-2.3808 6.0405-2.2785 8.7704l0.0777 2.0742h3.6976l0.31533-2.5332c0.67276-5.4044 1.6781-7.086 8.224-13.756l5.0932-5.1896v-1.233c0-0.67817 0.0701-1.233 0.15578-1.233 0.31787 0 5.9296 4.0101 5.9296 4.2372 0 0.12976-0.53917 0.47443-1.1982 0.76593-1.787 0.79048-4.2342 3.2606-5.1673 5.2158-0.96854 2.0294-1.2884 4.3051-1.2993 9.2435-0.0101 4.6061 0.0248 4.6731 2.3799 4.5626l1.713-0.0803 0.13229-2.9104 0.13229-2.9104h13.758l0.13229 2.9104 0.1323 2.9104 1.6767 0.0794c1.0084 0.0477 1.8257-0.0443 2.0505-0.23083 0.46733-0.38785 0.53075-8.2949 0.0858-10.702-0.37829-2.0463-1.5895-4.4014-2.9682-5.7712-0.61042-0.6065-4.7695-3.6626-9.2425-6.7913-5.1729-3.6183-8.1338-5.8509-8.1358-6.1346-4e-3 -0.61283 1.634-4.7997 1.9722-5.04 0.15048-0.10691 2.8632-0.19621 6.0283-0.19843l5.7547-4e-3v4.5971c0 2.5284 0.0761 4.9775 0.16903 5.4423 0.13393 0.66962 0.89618 1.469 3.6698 3.8484 6.1402 5.2676 7.4876 8.1098 7.7778 16.407l0.15732 4.4979 1.731 0.077c0.95206 0.0423 1.8153-7e-3 1.9182-0.11024zm-26.382-10.383c-0.29712-0.48075 1.3205-3.0887 2.4368-3.9287 2.8426-2.139 7.0009-1.7448 9.3074 0.88219 0.81772 0.93133 1.5955 2.3952 1.5955 3.0029 0 0.33928-13.13 0.38221-13.34 0.0436zm-11.796-31.132c0-9.0774 0.03341-9.7658 0.54906-11.311 1.9523-5.8503 6.876-9.4505 12.925-9.4505 6.2161 0 11.38 3.6667 13.418 9.5281 0.35622 1.0243 0.57596 1.9785 0.4883 2.1203-0.0971 0.15707-2.972 0.25947-7.3537 0.26194-3.9569 2e-3 -7.3416 0.0976-7.5216 0.21196-0.33393 0.21209-1.211 2.3758-5.087 12.55l-2.1923 5.7547h-5.2257zm5.1972-4.6196c1.548-0.62468 1.8901-2.7452 0.64398-3.9913-1.0398-1.0398-2.1759-1.0398-3.2157 0-1.2533 1.2533-0.9987 3.0562 0.54422 3.8541 0.86372 0.44665 1.2038 0.46967 2.0275 0.13726zm7.5028 6.8474c0-0.16179 0.55803-1.7713 1.24-3.5766l1.24-3.2825 12.204 0.1418-0.0688 0.62794c-0.11231 1.025-1.2917 3.7201-2.231 5.0984l-0.8752 1.2842-5.7547 5.1e-4c-4.0462 3.6e-4 -5.7547-0.0868-5.7547-0.29365zm38.187-32.954c0.30904-0.30905 0.19294-3.4073-0.14017-3.7404-0.2438-0.2438-8.5888-0.3175-35.951-0.3175-30.373 0-35.679 0.0552-35.944 0.37377-0.18656 0.2248-0.27857 1.0421-0.23083 2.0505l0.07937 1.6767 36.004 0.0671c19.802 0.0369 36.084-0.0127 36.182-0.11024zm-25.506-8.7238c0.3016-0.38343 0.54837-0.96268 0.54837-1.2872 0-0.32456-0.24677-0.90381-0.54837-1.2872l-0.54837-0.69714h-20.032l-0.54837 0.69714c-0.3016 0.38343-0.54837 0.96268-0.54837 1.2872 0 0.32455 0.24677 0.9038 0.54837 1.2872l0.54837 0.69714h20.032z" fill="#a79236"/>
  <path d="m131.02 203.46c0-5.4741-0.38491-7.4882-2.1038-11.008-1.3612-2.7876-3.1473-4.9365-6.3042-7.585-1.4147-1.1868-2.6531-2.3502-2.752-2.5853-0.0989-0.23507-0.1882-2.5142-0.19843-5.0646l-0.0186-4.6372 1.4274-2.0508c2.3619-3.3933 3.3351-6.4619 3.3351-10.516 0-5.0723-1.6079-8.996-5.1555-12.58-2.3274-2.3516-4.6117-3.7837-7.4898-4.6956-2.4448-0.77463-8.1965-0.81594-10.374-0.0745-4.4544 1.517-8.4267 4.785-10.396 8.553-1.9201 3.6734-2.0392 4.6302-2.0392 16.381 0 7.2929 0.09115 10.596 0.30536 11.066 0.59728 1.3109 1.407 1.5928 4.9863 1.736l3.3073 0.13229 0.15404 4.709-4.4623 4.5247c-2.4543 2.4886-4.8478 5.0926-5.319 5.7868-2.1255 3.1318-3.4576 7.1982-3.4651 10.578l-0.0045 2.0505h3.3636l0.17722-1.9068c0.24969-2.6866 0.84901-4.8097 1.9638-6.9568 0.7864-1.5146 1.9152-2.8219 6.1952-7.1749l5.2336-5.3228v-1.3579c0-0.91131 0.10877-1.357 0.33073-1.3553 0.40159 3e-3 6.3808 4.1353 6.5023 4.4936 0.0474 0.13977-0.56616 0.563-1.3635 0.9405-2.7625 1.308-4.762 3.5301-5.7656 6.4078-0.53353 1.5297-0.6114 2.9734-0.52775 9.7851l0.0301 2.4474h3.4222l0.1496-5.9531h14.288l0.1498 5.9769 3.5543-0.156 0.0773-4.3656c0.11621-6.5601-0.47366-8.8948-2.917-11.545-0.59772-0.64845-4.817-3.7997-9.3762-7.0028-6.1118-4.2939-8.2894-5.961-8.2894-6.3463 0-0.58863 1.5157-4.6898 1.9243-5.2067 0.20334-0.25725 1.6622-0.31903 6.2481-0.26459l5.9828 0.071 0.16395 5.0271c0.0902 2.7649 0.17946 5.2166 0.19843 5.4482 0.019 0.23163 1.2962 1.4777 2.8383 2.7691 4.8526 4.0636 6.6395 6.4573 7.7905 10.436 0.45225 1.5632 0.60334 2.9532 0.71177 6.5484l0.13765 4.5641h3.3729zm-26.564-5.2903c-0.28549-0.46194 0.51224-2.2475 1.511-3.3822 1.382-1.57 2.8157-2.2676 4.9799-2.423 1.4732-0.10575 1.9839-0.0214 3.1766 0.52463 1.73 0.792 3.0537 2.0693 3.7307 3.5996 0.8656 1.9568 1.0539 1.9019-6.5221 1.9019-3.7068 0-6.801-0.0994-6.8761-0.22093zm-11.801-31.216c0-8.1411 0.06935-9.9777 0.42211-11.179 1.3809-4.7012 4.9867-8.2744 9.7325-9.6444 2.1346-0.61622 6.293-0.44135 8.4882 0.35694 3.8716 1.4079 7.1969 4.6652 8.6052 8.4292 0.29391 0.78554 0.56391 1.8101 0.6 2.2768l0.0656 0.84855-7.4455 0.0702c-5.5148 0.052-7.5145 0.15492-7.7119 0.39687-0.23749 0.29122-2.5621 6.2443-5.5673 14.257-1.6113 4.2964-1.1977 3.9287-4.4201 3.9287h-2.7688zm5.424-5.116c1.3681-0.74831 1.6289-2.4553 0.54119-3.543-0.74298-0.74298-1.4368-0.81559-2.5066-0.26235-1.563 0.80825-1.4724 2.9325 0.16212 3.803 0.70842 0.37731 1.1167 0.37782 1.8033 2e-3zm7.1891 7.5154c-0.065-0.10914 0.4995-1.8058 1.2544-3.7703l1.3725-3.5719 6.1862-0.0711c3.5809-0.0412 6.2902 0.0328 6.4332 0.17578 0.15284 0.15285 0.0259 0.93103-0.33314 2.0424-0.67984 2.1044-0.99876 2.7514-2.1043 4.2691l-0.81908 1.1245h-5.9358c-3.2647 0-5.989-0.0893-6.054-0.19843zm38.397-35.19-0.0782-1.7859h-71.702l-0.07823 1.7859-0.07823 1.7859h72.015zm-25.611-6.9453c0.29104-0.29104 0.52917-0.82682 0.52917-1.1906 0-0.36381-0.23813-0.89959-0.52917-1.1906-0.51032-0.51032-0.88194-0.52917-10.436-0.52917h-9.9069l-0.41188 0.58804c-0.5618 0.80208-0.51705 1.688 0.11729 2.3224 0.5101 0.5101 0.88194 0.52917 10.319 0.52917 9.4368 0 9.8086-0.0191 10.319-0.52917z" fill="#89762a"/>
  <path d="m130.92 207.78c0.0906-0.23603 0.0995-2.4744 0.0197-4.9742-0.16334-5.1213-0.59517-7.1391-2.2285-10.413-1.3375-2.681-2.7872-4.4161-6.148-7.3588l-2.9268-2.5626v-10.268l0.94626-1.2397c2.4534-3.2141 3.6334-6.7602 3.6391-10.936 7e-3 -5.2818-1.4561-8.7926-5.24-12.572-3.6993-3.6945-7.3051-5.2108-12.442-5.2322-3.1259-0.013-5.2482 0.47014-8.0698 1.8372-2.7551 1.3349-6.1303 4.7168-7.4939 7.5088-1.8276 3.7421-1.8637 4.0232-1.971 15.337-0.06667 7.0316-0.0045 10.498 0.20066 11.191 0.48439 1.6376 1.4324 2.0357 4.8499 2.0369 3.8769 1e-3 3.8852 7e-3 3.8852 2.8251v2.2763l-4.5813 4.6597c-2.5197 2.5628-4.9714 5.2327-5.4481 5.933-2.0103 2.9534-3.2246 6.6814-3.291 10.104l-0.04107 2.1167h3.175l0.16384-2.1167c0.19947-2.5769 0.57636-4.0144 1.5882-6.0574 1.1906-2.4039 2.2241-3.6408 7.0955-8.4918 4.4051-4.3866 4.5139-4.5217 4.5139-5.6008 0-1.2576 0.20372-1.9428 0.57766-1.9428 0.43865 0 6.8307 4.5824 6.8307 4.8968 0 0.1636-0.66008 0.57104-1.4668 0.90543-2.9794 1.2349-5.4929 4.3883-6.1955 7.7728-0.16336 0.78693-0.2567 3.3903-0.21552 6.0112l0.0726 4.6231 1.4302 0.0814c0.965 0.0549 1.5015-0.0311 1.6496-0.26459 0.12069-0.19029 0.22125-1.5641 0.22348-3.0529 4e-3 -2.5861 0.0306-2.7134 0.59937-2.8526 0.32742-0.0801 3.5719-0.11214 7.2099-0.0712l6.6146 0.0745 0.0658 2.5135c0.10003 3.818 0.0628 3.745 1.8607 3.651l1.5131-0.0791 0.0827-4.7625c0.091-5.238-0.13958-6.9391-1.2103-8.9293-1.0549-1.9608-3.0577-3.6201-11.514-9.5393-5.129-3.5901-7.8606-5.6602-7.8552-5.9531 4e-3 -0.24699 0.45444-1.5802 0.99988-2.9626l0.99171-2.5135h12.685l0.0716 5.3487 0.0716 5.3487 3.1379 2.642c3.6729 3.0924 4.9841 4.5478 6.2176 6.9012 1.5696 2.9947 1.8104 4.1504 1.9844 9.525l0.15854 4.8948 1.5246 0.0794c1.2111 0.0631 1.5584-9e-3 1.6892-0.34971zm-26.541-9.5392c-0.49919-1.3008 1.6358-4.3833 3.712-5.3592 3.8135-1.7926 8.3009-0.13489 9.9383 3.6714 0.92292 2.1454 1.0542 2.1046-6.7676 2.1046-5.8741 0-6.743-0.0526-6.8827-0.41674zm-11.681-21.508c-0.28036-0.17778-0.33082-2.1726-0.25926-10.249 0.08716-9.8352 0.10095-10.058 0.71833-11.615 2.7645-6.9722 9.6726-10.687 16.673-8.9657 2.6094 0.64152 4.6843 1.8457 6.8223 3.9592 1.3903 1.3744 2.1619 2.4131 2.8335 3.8145 1.081 2.2557 1.4678 4.1729 0.91276 4.5245-0.20083 0.12721-3.6026 0.2331-7.5594 0.23533-5.4612 3e-3 -7.2458 0.0837-7.4083 0.33478-0.22028 0.34036-1.1427 2.716-4.7 12.105-1.1303 2.9832-2.1755 5.5728-2.3227 5.7547-0.30741 0.37994-5.1359 0.46609-5.7103 0.10187zm5.742-15.315c0.30672-0.25466 0.63088-0.84209 0.72034-1.3054 0.1312-0.67947 0.03135-0.97366-0.51634-1.5214-1.5891-1.5891-4.0455-0.14533-3.3156 1.9487 0.47138 1.3522 2.0156 1.788 3.1116 0.87806zm6.6447 7.888c0-0.75111 2.5679-7.2123 2.967-7.4656 0.18713-0.11874 3.0526-0.21771 6.3678-0.21993 5.3271-4e-3 6.0468 0.046 6.1929 0.42674 0.41404 1.079-1.3395 5.3843-2.8527 7.0043l-0.7165 0.76702h-5.9793c-5.7381 0-5.9793-0.0207-5.9793-0.51252zm38.348-33.73c0.17477-0.21058 0.27643-0.93888 0.23084-1.6536l-0.0815-1.2773h-71.702l-0.0814 1.4302c-0.05492 0.965 0.03113 1.5015 0.26458 1.6496 0.19029 0.12069 16.256 0.22125 35.702 0.22348 30.25 3e-3 35.401-0.0503 35.668-0.37227zm-25.706-8.2376c0.41082-0.28775 0.58803-0.68191 0.58803-1.3079 0-1.7104-0.0599-1.7203-10.444-1.7159-10.398 4e-3 -10.537 0.0255-10.671 1.6307-0.15111 1.8012-0.1288 1.805 10.532 1.805 8.0861 0 9.4898-0.0578 9.9953-0.41188z" fill="#63541f"/>
  <path d="m130.68 203.1c-0.16344-5.5344-0.57245-7.4323-2.3253-10.79-1.4382-2.7547-3.0347-4.6249-6.2379-7.3073l-2.742-2.2962 3e-3 -5.3222 3e-3 -5.3222 0.94725-1.1906c1.5899-1.9984 2.9455-5.1337 3.4259-7.924 1.3358-7.7573-2.5096-15.285-9.5377-18.67-2.8559-1.3755-4.761-1.81-7.9375-1.81-7.8355-9e-5 -14.453 5.2091-16.408 12.916-0.6414 2.5285-0.65733 2.8281-0.65733 12.36 0 12.594-0.19647 12.124 5.0671 12.124 3.9117 0 3.9288 0.0134 3.9288 3.0878v2.2563l-4.5717 4.6725c-3.0485 3.1158-4.9826 5.3329-5.8052 6.6545-1.6086 2.5847-2.7668 6.0812-3.0059 9.0747l-0.18618 2.3302 2.8534-0.1626 0.1764-2.1257c0.09702-1.1692 0.43436-2.8956 0.74966-3.8365 1.1631-3.4708 1.7472-4.2001 10.781-13.46 1.5049-1.5425 1.6541-1.7972 1.6541-2.8226 0-1.4308 0.20668-1.9642 0.76102-1.9642 0.62777 0 7.1765 4.7031 7.1765 5.154 0 0.2064-0.79638 0.75535-1.7697 1.2199-1.9786 0.94431-3.9837 2.7861-4.822 4.4293-1.0812 2.1193-1.3458 3.8583-1.3458 8.8454v4.7207l2.7781-0.16 0.076-2.7628c0.0418-1.5196 0.20519-2.9186 0.36313-3.1088 0.22315-0.26888 1.8357-0.34601 7.2338-0.34601s7.0107 0.0771 7.2338 0.34601c0.15794 0.1903 0.32135 1.5893 0.36313 3.1088l0.076 2.7628 2.7781 0.16v-4.853c0-5.4336-0.30431-7.1979-1.5859-9.1949-1.1753-1.8313-1.9494-2.4546-10.188-8.2023-4.2201-2.9442-7.9651-5.6347-8.3223-5.9789l-0.64935-0.62587 0.59153-1.792c0.32534-0.98562 0.85568-2.3278 1.1785-2.9827l0.58699-1.1906h12.965l0.13229 5.4687c0.0728 3.0078 0.19182 5.516 0.26458 5.5738 0.51473 0.40871 5.7679 4.9123 6.0998 5.2293 0.96398 0.92102 2.359 2.8856 3.1001 4.3656 1.4721 2.9402 1.7142 4.1289 1.8857 9.2604l0.15923 4.7625 2.8492 0.1624zm-26.232-4.3428c-1.0345-0.39696-0.13548-3.0204 1.6298-4.7561 1.515-1.4896 3.0164-2.0688 5.36-2.0678 3.108 1e-3 5.3307 1.4031 6.6515 4.195 0.88346 1.8675 0.91563 2.1416 0.2938 2.5037-0.49836 0.29027-13.207 0.40443-13.935 0.12517zm-12.045-21.914c-0.23392-0.28186-0.29176-2.9368-0.22628-10.385l0.08798-10.006 0.69858-1.7524c0.95168-2.3874 1.8856-3.8037 3.6424-5.5236 6.8684-6.7244 18.678-4.5355 23.007 4.2644 1.2114 2.4626 1.6694 4.6319 1.0594 5.0181-0.20365 0.12894-3.6604 0.23626-7.6817 0.23849l-7.3115 4e-3 -0.5519 1.3891c-1.434 3.609-5.8596 15.334-5.8596 15.523 0 0.11778-0.24677 0.52785-0.54837 0.91128-0.52903 0.67256-0.64452 0.69714-3.2749 0.69714-2.0425 0-2.8054-0.095-3.0408-0.37865zm6.0511-15.929c0.63353-0.80539 0.65788-0.98168 0.24418-1.7676-0.6427-1.221-2.0074-1.3509-2.8562-0.27176-0.62828 0.79873-0.5276 1.5559 0.30232 2.2735 0.7706 0.66632 1.6734 0.5748 2.3097-0.23412zm6.4143 8.5418c-0.11354-0.59047 2.2373-6.9912 2.8083-7.6462 0.36282-0.41619 1.0217-0.46261 6.5142-0.45897 3.3608 2e-3 6.2772 0.10955 6.4808 0.23849 0.91579 0.57984-0.76293 5.408-2.6129 7.5151l-0.8633 0.98325-6.1165-0.071c-5.7111-0.0662-6.1227-0.1034-6.2106-0.5607zm38.407-33.949c0.0975-0.0975 0.17734-0.75281 0.17734-1.4562v-1.2788h-71.465l0.07997 1.3891 0.07997 1.3891 35.475 0.0671c19.511 0.0369 35.555-0.0127 35.653-0.11025zm-25.818-8.4309c0.62037-0.43717 0.76655-1.2964 0.33633-1.977-0.21565-0.34113-1.6286-0.39687-10.06-0.39687-10.525 0-10.311-0.0275-10.311 1.3229 0 1.3414-0.16958 1.3177 9.9701 1.3967 8.2958 0.0646 9.5424 0.0218 10.064-0.34573z" fill="#302b23"/>
 </g>
</svg>
